# xmcd
#
# Track frame offsets:
#	150
#	16605
#	34439
#	50411
#	66643
#	88589
#	104064
#	125124
#	143868
#	160127
#	176872
#	194331
#	207721
#	228448
#	244626
#	263013
#	281305
#	300636
#	316531
#	333498
#
# Disc length: 4670 seconds
#
# Revision: 0
# Processed by: cddbd v1.5.2PL0 Copyright (c) Steve Scherf et al.
# Submitted via: audiograbber 1.83.01
#
DISCID=28123c14
DTITLE=Various Artist - X-Mix Radioactive Urban 98 (ALL CLEAN VERSIONS) (September 201
DTITLE=0)
DYEAR=2010
DGENRE=
TTITLE0=far east movement feat the cataracs and dev - like a g6 (125 BPM)
TTITLE1=ricky blaze - ust you and i (101 BPM)
TTITLE2=lloyd banks ft . lloyd - any girl (98 BPM)
TTITLE3=john legend and the roots feat common and melanie fiona - wake up every
TTITLE3=body (94 BPM)
TTITLE4=khali - girlfriend ringtone (93 BPM)
TTITLE5=nell - tippin in da club (91 BPM)
TTITLE6=usher feat jay z - hot tottie (88 BPM)
TTITLE7=drake feat t .i . and swizz beatz - fancy (88 BPM)
TTITLE8=jagged edge - lay you down (87 BPM)
TTITLE9=trey songz - cant be friends (85 BPM)
TTITLE10=tank - sex music (85 BPM)
TTITLE11=gucci mane ft swizz beatz - gucci time (83 BPM)
TTITLE12=lil wayne ft drake - right above it (76 BPM)
TTITLE13=bricsco ft . lil wayne - on the wall  (75 BPM)
TTITLE14=trey songz ft nicki minaj - bottoms up (74 BPM)
TTITLE15=young jeezy ft lil jon - jizzle (73 BPM)
TTITLE16=roscoe dash and t pain feat fabo - my own step (70 BPM)
TTITLE17=fabolous - lights out (i don t see nobody) (70 BPM)
TTITLE18=marques houston feat rick ross - pulling on her hair (70 BPM)
TTITLE19=k . michelle - i just can t do this  (65 BPM)
EXTD=
EXTT0=
EXTT1=
EXTT2=
EXTT3=
EXTT4=
EXTT5=
EXTT6=
EXTT7=
EXTT8=
EXTT9=
EXTT10=
EXTT11=
EXTT12=
EXTT13=
EXTT14=
EXTT15=
EXTT16=
EXTT17=
EXTT18=
EXTT19=
PLAYORDER=
